<?xml version="1.0" encoding="UTF-8" standalone="no"?>
<svg xmlns="http://www.w3.org/2000/svg" width="800" height="400" viewBox="0 0 800 400">
  <style>
    .axis {
      stroke: #333333;
      stroke-width: 2;
    }
    .grid {
      stroke: #DDDDDD;
      stroke-width: 1;
    }
    .point-pos {
      fill: #44AA99;
      stroke: #333333;
      stroke-width: 1;
    }
    .point-neg {
      fill: #CC6677;
      stroke: #333333;
      stroke-width: 1;
    }
    .separator {
      stroke: #3366BB;
      stroke-width: 3;
    }
    .separator-dash {
      stroke: #BB3366;
      stroke-width: 3;
      stroke-dasharray: 5,5;
    }
    .label {
      fill: #333333;
      font-family: Arial, sans-serif;
      font-size: 16px;
      text-anchor: middle;
    }
    .title {
      font-size: 18px;
      font-weight: bold;
    }
    .caption {
      font-size: 14px;
      font-style: italic;
    }
  </style>

  <!-- 线性可分问题 -->
  <g transform="translate(200, 200)">
    <!-- 坐标轴和网格 -->
    <line x1="-150" y1="0" x2="150" y2="0" class="axis" />
    <line x1="0" y1="-150" x2="0" y2="150" class="axis" />
    
    <line x1="-150" y1="-100" x2="150" y2="-100" class="grid" />
    <line x1="-150" y1="-50" x2="150" y2="-50" class="grid" />
    <line x1="-150" y1="50" x2="150" y2="50" class="grid" />
    <line x1="-150" y1="100" x2="150" y2="100" class="grid" />
    
    <line x1="-100" y1="-150" x2="-100" y2="150" class="grid" />
    <line x1="-50" y1="-150" x2="-50" y2="150" class="grid" />
    <line x1="50" y1="-150" x2="50" y2="150" class="grid" />
    <line x1="100" y1="-150" x2="100" y2="150" class="grid" />
    
    <!-- 数据点 -->
    <circle cx="-80" cy="-90" r="10" class="point-pos" />
    <circle cx="-60" cy="-40" r="10" class="point-pos" />
    <circle cx="-30" cy="-70" r="10" class="point-pos" />
    <circle cx="-20" cy="-20" r="10" class="point-pos" />
    <circle cx="10" cy="-50" r="10" class="point-pos" />
    <circle cx="40" cy="-30" r="10" class="point-pos" />
    
    <circle cx="-50" cy="20" r="10" class="point-neg" />
    <circle cx="-10" cy="30" r="10" class="point-neg" />
    <circle cx="20" cy="20" r="10" class="point-neg" />
    <circle cx="40" cy="60" r="10" class="point-neg" />
    <circle cx="70" cy="30" r="10" class="point-neg" />
    <circle cx="80" cy="80" r="10" class="point-neg" />
    
    <!-- 线性分隔线 -->
    <line x1="-150" y1="-10" x2="150" y2="90" class="separator" />
    
    <!-- 标签 -->
    <text x="0" y="-170" class="label title">线性可分问题</text>
    <text x="0" y="170" class="label caption">可以用一条直线分隔</text>
  </g>
  
  <!-- 非线性可分问题 (XOR) -->
  <g transform="translate(600, 200)">
    <!-- 坐标轴和网格 -->
    <line x1="-150" y1="0" x2="150" y2="0" class="axis" />
    <line x1="0" y1="-150" x2="0" y2="150" class="axis" />
    
    <line x1="-150" y1="-100" x2="150" y2="-100" class="grid" />
    <line x1="-150" y1="-50" x2="150" y2="-50" class="grid" />
    <line x1="-150" y1="50" x2="150" y2="50" class="grid" />
    <line x1="-150" y1="100" x2="150" y2="100" class="grid" />
    
    <line x1="-100" y1="-150" x2="-100" y2="150" class="grid" />
    <line x1="-50" y1="-150" x2="-50" y2="150" class="grid" />
    <line x1="50" y1="-150" x2="50" y2="150" class="grid" />
    <line x1="100" y1="-150" x2="100" y2="150" class="grid" />
    
    <!-- XOR 数据点 -->
    <circle cx="-50" cy="-50" r="12" class="point-neg" />
    <circle cx="-50" cy="50" r="12" class="point-pos" />
    <circle cx="50" cy="-50" r="12" class="point-pos" />
    <circle cx="50" cy="50" r="12" class="point-neg" />
    
    <!-- 无法用单条线分隔 -->
    <line x1="-150" y1="0" x2="150" y2="0" class="separator-dash" />
    <line x1="0" y1="-150" x2="0" y2="150" class="separator-dash" />
    
    <!-- 标签 -->
    <text x="0" y="-170" class="label title">XOR 问题（非线性可分）</text>
    <text x="0" y="170" class="label caption">无法用一条直线分隔</text>
    
    <!-- XOR特征标注 -->
    <text x="-50" cy="-50" dy="-20" class="label">(0,0)=0</text>
    <text x="-50" cy="50" dy="20" class="label">(0,1)=1</text>
    <text x="50" cy="-50" dy="-20" class="label">(1,0)=1</text>
    <text x="50" cy="50" dy="20" class="label">(1,1)=0</text>
  </g>
</svg> 