<?xml version="1.0" encoding="UTF-8" standalone="no"?>
<svg xmlns="http://www.w3.org/2000/svg" width="600" height="400" viewBox="0 0 600 400">
  <style>
    .node {
      fill: #88CCEE;
      stroke: #333333;
      stroke-width: 2;
    }
    .output-node {
      fill: #CC6677;
    }
    .line {
      stroke: #333333;
      stroke-width: 2;
    }
    .weight {
      fill: #44AA99;
      font-family: Arial, sans-serif;
      font-size: 16px;
    }
    .label {
      fill: #333333;
      font-family: Arial, sans-serif;
      font-size: 16px;
      text-anchor: middle;
    }
    .bold-label {
      font-weight: bold;
      font-size: 18px;
    }
    .formula {
      font-style: italic;
      font-family: "Times New Roman", serif;
    }
  </style>

  <!-- 输入节点 -->
  <circle cx="100" cy="120" r="25" class="node" />
  <text x="100" cy="120" dy="6" class="label">x₁</text>
  
  <circle cx="100" cy="200" r="25" class="node" />
  <text x="100" cy="200" dy="6" class="label">x₂</text>
  
  <circle cx="100" cy="280" r="25" class="node" />
  <text x="100" cy="280" dy="6" class="label">x₃</text>

  <!-- 连接线和权重 -->
  <line x1="125" y1="120" x2="275" y2="200" class="line" />
  <text x="190" y="150" class="weight">w₁</text>
  
  <line x1="125" y1="200" x2="275" y2="200" class="line" />
  <text x="190" y="190" class="weight">w₂</text>
  
  <line x1="125" y1="280" x2="275" y2="200" class="line" />
  <text x="190" y="250" class="weight">w₃</text>

  <!-- 加权求和节点 -->
  <circle cx="300" cy="200" r="35" class="node" />
  <text x="300" cy="200" dy="6" class="label bold-label">Σ</text>
  <text x="300" cy="235" class="label">z = Σw·x + b</text>

  <!-- 激活函数和输出 -->
  <line x1="335" y1="200" x2="425" y2="200" class="line" />
  <text x="380" y="190" class="label formula">σ(z)</text>
  
  <circle cx="450" cy="200" r="25" class="node output-node" />
  <text x="450" cy="200" dy="6" class="label">ŷ</text>
  
  <!-- 偏置 -->
  <line x1="250" y1="320" x2="275" y2="230" class="line" stroke-dasharray="5,5" />
  <text x="240" y="320" class="weight">b</text>
  
  <!-- 图例和标题 -->
  <text x="300" y="40" class="label" style="font-size: 24px; font-weight: bold;">感知机模型 (Perceptron)</text>
  <text x="300" y="70" class="label" style="font-style: italic;">单层神经网络的基本单元</text>
</svg> 